<svg xmlns="http://www.w3.org/2000/svg" xmlns:xlink="http://www.w3.org/1999/xlink" width="500" zoomAndPan="magnify" viewBox="0 0 375 374.999991" height="500" preserveAspectRatio="xMidYMid meet" version="1.0"><defs><g/><clipPath id="f0acad3bbe"><path d="M 0 153 L 105 153 L 105 199 L 0 199 Z M 0 153 " clip-rule="nonzero"/></clipPath><clipPath id="ed92ef661b"><path d="M -135.089844 68.808594 L 104.269531 160.9375 L 55.371094 287.980469 L -183.988281 195.855469 Z M -135.089844 68.808594 " clip-rule="nonzero"/></clipPath><clipPath id="0eb41dd16a"><path d="M -43.027344 104.242188 L 104.269531 160.9375 L 55.371094 287.980469 L -91.925781 231.289062 Z M -43.027344 104.242188 " clip-rule="nonzero"/></clipPath><clipPath id="41e425d3c0"><path d="M -135.023438 68.835938 L 104.335938 160.964844 L 55.4375 288.007812 L -183.921875 195.878906 Z M -135.023438 68.835938 " clip-rule="nonzero"/></clipPath><clipPath id="9aafc46368"><path d="M -135.03125 68.863281 L 104.316406 160.988281 L 55.441406 287.976562 L -183.910156 195.851562 Z M -135.03125 68.863281 " clip-rule="nonzero"/></clipPath><clipPath id="2ae0efa54d"><path d="M 269 155 L 375 155 L 375 199 L 269 199 Z M 269 155 " clip-rule="nonzero"/></clipPath><clipPath id="b93eb0a018"><path d="M 506.355469 284.34375 L 269.84375 185.140625 L 322.496094 59.605469 L 559.011719 158.808594 Z M 506.355469 284.34375 " clip-rule="nonzero"/></clipPath><clipPath id="e19e77e65f"><path d="M 429.945312 252.292969 L 269.84375 185.140625 L 322.496094 59.605469 L 482.597656 126.757812 Z M 429.945312 252.292969 " clip-rule="nonzero"/></clipPath><clipPath id="3e2a9766bc"><path d="M 506.300781 284.320312 L 269.789062 185.117188 L 322.441406 59.582031 L 558.957031 158.785156 Z M 506.300781 284.320312 " clip-rule="nonzero"/></clipPath><clipPath id="a577b8aed7"><path d="M 506.3125 284.292969 L 269.808594 185.09375 L 322.4375 59.613281 L 558.945312 158.8125 Z M 506.3125 284.292969 " clip-rule="nonzero"/></clipPath></defs><rect x="-37.5" width="450" fill="#ffffff" y="-37.499999" height="449.999989" fill-opacity="1"/><rect x="-37.5" width="450" fill="#ffffff" y="-37.499999" height="449.999989" fill-opacity="1"/><g clip-path="url(#f0acad3bbe)"><g clip-path="url(#ed92ef661b)"><g clip-path="url(#0eb41dd16a)"><g clip-path="url(#41e425d3c0)"><g clip-path="url(#9aafc46368)"><path fill="#000000" d="M 98.277344 163.253906 C 63.253906 178.007812 22.171875 171.160156 -15.246094 164.332031 C -56.769531 156.75 -114.933594 146.152344 -154.304688 162.902344 C -165.144531 167.515625 -175.542969 174.546875 -179.929688 185.519531 C -181.757812 190.09375 -181.875 193.046875 -180.335938 195.859375 C -178.695312 198.859375 -173.84375 199.855469 -172.90625 197.382812 C -172.597656 196.5625 -172.855469 196.117188 -174.316406 194.957031 C -176.535156 193.191406 -176.992188 191.542969 -176.292969 187.78125 C -175.207031 181.925781 -170.253906 175.285156 -163.246094 170.308594 C -146.339844 158.296875 -118.304688 153.335938 -82.136719 155.960938 C -31.945312 159.601562 9.046875 174.03125 53.308594 173.214844 C 70.640625 172.894531 83.570312 170.640625 94.699219 165.992188 C 99.355469 164.046875 104.480469 161.375 104.300781 160.984375 C 104.191406 160.761719 98.320312 163.269531 98.277344 163.253906 " fill-opacity="1" fill-rule="nonzero"/></g></g></g></g></g><g fill="#000000" fill-opacity="1"><g transform="translate(94.612263, 229.117547)"><g><path d="M 29.46875 -32.015625 C 33.132812 -35.554688 37.09375 -39.351562 41.34375 -43.40625 C 45.601562 -47.46875 49.398438 -51.398438 52.734375 -55.203125 C 56.078125 -59.003906 58.238281 -62.28125 59.21875 -65.03125 C 60.207031 -67.78125 59.257812 -69.613281 56.375 -70.53125 C 54.675781 -71.050781 52.515625 -70.722656 49.890625 -69.546875 C 47.273438 -68.367188 44.066406 -65.847656 40.265625 -61.984375 C 36.472656 -58.117188 31.957031 -52.484375 26.71875 -45.078125 C 21.476562 -37.679688 15.320312 -27.957031 8.25 -15.90625 L 4.71875 14.734375 C 4.457031 17.347656 3.3125 19.046875 1.28125 19.828125 C -0.75 20.617188 -2.710938 20.523438 -4.609375 19.546875 C -6.515625 18.566406 -7.398438 16.960938 -7.265625 14.734375 C -6.484375 7.660156 -5.632812 -0.847656 -4.71875 -10.796875 C -3.800781 -20.753906 -2.6875 -31.429688 -1.375 -42.828125 C -0.0625 -54.222656 1.507812 -65.78125 3.34375 -77.5 C 5.175781 -89.21875 7.429688 -100.414062 10.109375 -111.09375 C 12.796875 -121.769531 15.941406 -131.363281 19.546875 -139.875 C 23.148438 -148.382812 27.304688 -155.160156 32.015625 -160.203125 C 36.734375 -165.242188 42.171875 -167.894531 48.328125 -168.15625 C 52.253906 -168.289062 55.59375 -166.785156 58.34375 -163.640625 C 61.09375 -160.503906 62.664062 -155.820312 63.0625 -149.59375 C 63.457031 -143.375 62.179688 -135.679688 59.234375 -126.515625 C 56.285156 -117.347656 51.144531 -106.804688 43.8125 -94.890625 C 36.476562 -82.972656 26.394531 -69.8125 13.5625 -55.40625 C 12.90625 -51.082031 12.179688 -45.84375 11.390625 -39.6875 C 10.609375 -33.53125 9.820312 -27.632812 9.03125 -22 C 16.101562 -33.914062 22.617188 -43.96875 28.578125 -52.15625 C 34.535156 -60.34375 40.035156 -66.269531 45.078125 -69.9375 C 50.128906 -73.601562 54.75 -74.453125 58.9375 -72.484375 C 61.289062 -71.304688 62.859375 -69.175781 63.640625 -66.09375 C 64.429688 -63.019531 64.398438 -59.582031 63.546875 -55.78125 C 62.703125 -51.988281 61.066406 -48.257812 58.640625 -44.59375 C 56.210938 -40.925781 53 -37.847656 49 -35.359375 C 45.007812 -32.867188 40.132812 -31.429688 34.375 -31.046875 L 51.859375 -21.609375 C 53.171875 -21.085938 53.757812 -19.546875 53.625 -16.984375 C 53.5 -14.429688 52.976562 -11.289062 52.0625 -7.5625 C 51.144531 -3.832031 50.160156 0.0625 49.109375 4.125 C 48.066406 8.1875 47.28125 11.984375 46.75 15.515625 C 46.226562 19.054688 46.296875 22.003906 46.953125 24.359375 C 47.609375 26.710938 49.179688 27.957031 51.671875 28.09375 C 55.078125 28.226562 59.492188 25.148438 64.921875 18.859375 C 70.359375 12.578125 76.84375 3.835938 84.375 -7.359375 C 91.90625 -18.554688 100.382812 -31.492188 109.8125 -46.171875 C 110.988281 -47.210938 112.035156 -47.601562 112.953125 -47.34375 C 113.867188 -47.082031 114.066406 -46.625 113.546875 -45.96875 C 103.328125 -30.382812 94.421875 -16.765625 86.828125 -5.109375 C 79.234375 6.546875 72.585938 15.515625 66.890625 21.796875 C 61.191406 28.085938 55.921875 31.035156 51.078125 30.640625 C 46.890625 30.515625 43.582031 29.171875 41.15625 26.609375 C 38.726562 24.054688 37.054688 20.75 36.140625 16.6875 C 35.222656 12.632812 35.023438 8.316406 35.546875 3.734375 C 36.078125 -0.847656 37.191406 -5.332031 38.890625 -9.71875 C 40.597656 -14.113281 42.828125 -17.878906 45.578125 -21.015625 C 45.578125 -21.015625 44.691406 -21.503906 42.921875 -22.484375 C 41.148438 -23.472656 39.117188 -24.617188 36.828125 -25.921875 C 34.535156 -27.234375 32.632812 -28.476562 31.125 -29.65625 C 29.625 -30.84375 29.070312 -31.628906 29.46875 -32.015625 Z M 14.140625 -60.5 C 25.929688 -74.519531 35.195312 -87.191406 41.9375 -98.515625 C 48.6875 -109.847656 53.4375 -119.738281 56.1875 -128.1875 C 58.9375 -136.632812 60.144531 -143.640625 59.8125 -149.203125 C 59.488281 -154.773438 58.179688 -158.898438 55.890625 -161.578125 C 53.597656 -164.265625 50.75 -165.476562 47.34375 -165.21875 C 44.726562 -165.082031 42.109375 -162.882812 39.484375 -158.625 C 36.867188 -154.375 34.28125 -148.710938 31.71875 -141.640625 C 29.164062 -134.566406 26.742188 -126.546875 24.453125 -117.578125 C 22.160156 -108.609375 20.128906 -99.242188 18.359375 -89.484375 C 16.597656 -79.722656 15.191406 -70.0625 14.140625 -60.5 Z M 14.140625 -60.5 "/></g></g></g><g fill="#000000" fill-opacity="1"><g transform="translate(204.234807, 229.117547)"><g><path d="M 56.578125 -58.734375 C 60.378906 -58.347656 63.328125 -56.550781 65.421875 -53.34375 C 67.515625 -50.132812 68.984375 -46.039062 69.828125 -41.0625 C 70.679688 -36.082031 71.078125 -30.742188 71.015625 -25.046875 C 70.953125 -19.347656 70.59375 -13.847656 69.9375 -8.546875 C 69.28125 -3.242188 68.492188 1.304688 67.578125 5.109375 C 74.910156 3.273438 81.882812 -0.359375 88.5 -5.796875 C 95.113281 -11.234375 101.398438 -17.550781 107.359375 -24.75 C 113.316406 -31.957031 118.851562 -39.160156 123.96875 -46.359375 C 124.226562 -46.753906 124.847656 -46.953125 125.828125 -46.953125 C 126.804688 -46.953125 127.296875 -46.691406 127.296875 -46.171875 C 117.347656 -31.492188 107.265625 -19.34375 97.046875 -9.71875 C 86.828125 -0.09375 76.675781 6.023438 66.59375 8.640625 C 64.101562 17.546875 60.859375 25.109375 56.859375 31.328125 C 52.867188 37.554688 48.582031 42.664062 44 46.65625 C 39.414062 50.65625 34.929688 53.703125 30.546875 55.796875 C 26.160156 57.890625 22.296875 59.195312 18.953125 59.71875 C 15.617188 60.238281 13.164062 60.238281 11.59375 59.71875 C 9.226562 58.800781 7.359375 56.898438 5.984375 54.015625 C 4.609375 51.140625 4.21875 47.738281 4.8125 43.8125 C 5.40625 39.882812 7.398438 35.757812 10.796875 31.4375 C 14.203125 27.113281 19.441406 23.019531 26.515625 19.15625 C 33.585938 15.289062 42.953125 11.984375 54.609375 9.234375 C 55.921875 4.390625 57.097656 -0.941406 58.140625 -6.765625 C 59.191406 -12.597656 59.976562 -18.332031 60.5 -23.96875 C 61.03125 -29.601562 61.296875 -34.804688 61.296875 -39.578125 C 61.296875 -44.359375 60.867188 -48.222656 60.015625 -51.171875 C 59.160156 -54.117188 57.816406 -55.722656 55.984375 -55.984375 C 51.796875 -56.515625 47.570312 -54.847656 43.3125 -50.984375 C 39.0625 -47.117188 34.835938 -41.679688 30.640625 -34.671875 C 26.453125 -27.660156 22.394531 -19.601562 18.46875 -10.5 C 14.539062 -1.40625 10.804688 8.117188 7.265625 18.078125 C 6.085938 21.347656 4.382812 23.40625 2.15625 24.25 C -0.0625 25.101562 -2.019531 24.941406 -3.71875 23.765625 C -5.425781 22.585938 -6.148438 20.691406 -5.890625 18.078125 C -5.234375 3.273438 -4.25 -11.554688 -2.9375 -26.421875 C -1.632812 -41.285156 0.09375 -55.660156 2.25 -69.546875 C 4.414062 -83.429688 7.003906 -96.332031 10.015625 -108.25 C 13.023438 -120.164062 16.492188 -130.609375 20.421875 -139.578125 C 24.359375 -148.546875 28.78125 -155.550781 33.6875 -160.59375 C 38.601562 -165.632812 44.007812 -168.15625 49.90625 -168.15625 C 53.832031 -168.15625 57.203125 -166.648438 60.015625 -163.640625 C 62.828125 -160.628906 64.460938 -156.175781 64.921875 -150.28125 C 65.378906 -144.394531 64.164062 -137.0625 61.28125 -128.28125 C 58.40625 -119.507812 53.332031 -109.296875 46.0625 -97.640625 C 38.800781 -85.984375 28.75 -72.953125 15.90625 -58.546875 C 15.382812 -56.578125 14.796875 -53.203125 14.140625 -48.421875 C 13.484375 -43.640625 12.796875 -38.039062 12.078125 -31.625 C 11.359375 -25.207031 10.640625 -18.492188 9.921875 -11.484375 C 9.203125 -4.484375 8.445312 2.222656 7.65625 8.640625 C 13.289062 -5.367188 18.660156 -17.515625 23.765625 -27.796875 C 28.878906 -38.078125 34.085938 -45.96875 39.390625 -51.46875 C 44.691406 -56.96875 50.421875 -59.390625 56.578125 -58.734375 Z M 16.5 -63.65625 C 28.289062 -77.664062 37.523438 -90.203125 44.203125 -101.265625 C 50.878906 -112.335938 55.5625 -121.960938 58.25 -130.140625 C 60.9375 -138.328125 62.082031 -145.039062 61.6875 -150.28125 C 61.289062 -155.519531 59.914062 -159.382812 57.5625 -161.875 C 55.207031 -164.363281 52.328125 -165.476562 48.921875 -165.21875 C 46.429688 -165.082031 43.875 -162.984375 41.25 -158.921875 C 38.632812 -154.867188 36.082031 -149.46875 33.59375 -142.71875 C 31.101562 -135.976562 28.742188 -128.285156 26.515625 -119.640625 C 24.296875 -110.992188 22.332031 -101.890625 20.625 -92.328125 C 18.925781 -82.765625 17.550781 -73.207031 16.5 -63.65625 Z M 12.96875 57.5625 C 14.28125 57.6875 16.601562 57.09375 19.9375 55.78125 C 23.28125 54.476562 27.015625 52.1875 31.140625 48.90625 C 35.265625 45.632812 39.351562 41.019531 43.40625 35.0625 C 47.46875 29.101562 50.941406 21.609375 53.828125 12.578125 C 42.953125 15.191406 34.238281 18.363281 27.6875 22.09375 C 21.144531 25.832031 16.300781 29.726562 13.15625 33.78125 C 10.019531 37.84375 8.1875 41.640625 7.65625 45.171875 C 7.132812 48.710938 7.429688 51.597656 8.546875 53.828125 C 9.660156 56.054688 11.132812 57.300781 12.96875 57.5625 Z M 12.96875 57.5625 "/></g></g></g><g clip-path="url(#2ae0efa54d)"><g clip-path="url(#b93eb0a018)"><g clip-path="url(#e19e77e65f)"><g clip-path="url(#3e2a9766bc)"><g clip-path="url(#a577b8aed7)"><path fill="#000000" d="M 275.910156 183.007812 C 311.359375 169.300781 352.21875 177.367188 389.414062 185.304688 C 430.695312 194.117188 488.519531 206.4375 528.371094 190.867188 C 539.34375 186.578125 549.949219 179.859375 554.660156 169.023438 C 556.621094 164.503906 556.824219 161.554688 555.371094 158.699219 C 553.816406 155.652344 549 154.511719 547.992188 156.953125 C 547.65625 157.765625 547.902344 158.21875 549.328125 159.421875 C 551.492188 161.253906 551.898438 162.914062 551.089844 166.652344 C 549.832031 172.476562 544.679688 178.960938 537.527344 183.730469 C 520.273438 195.234375 492.105469 199.355469 456.027344 195.660156 C 405.964844 190.53125 365.421875 174.886719 321.15625 174.386719 C 303.824219 174.191406 290.832031 176.0625 279.570312 180.375 C 274.855469 182.183594 269.652344 184.703125 269.824219 185.09375 C 269.925781 185.324219 275.867188 182.988281 275.910156 183.007812 " fill-opacity="1" fill-rule="nonzero"/></g></g></g></g></g></svg>